# xmcd
#
# Track frame offsets:
#	150
#	26222
#	47859
#	61566
#	78336
#	96811
#	118720
#	138770
#	160666
#	186226
#	212055
#	229935
#	280229
#
# Disc length: 3742 seconds
#
# Revision: 1
# Processed by: cddbd v1.5.2PL0 Copyright (c) Steve Scherf et al.
# Submitted via: audiograbber 1.83.01
#
DISCID=ae0e9c0d
DTITLE=Lance Lopez - Wall of Soul
DYEAR=2004
DGENRE=
TTITLE0=Love/Hate Relationship 
TTITLE1=Looks so good
TTITLE2=Didja
TTITLE3=Cardboard sign
TTITLE4=Alone in Love
TTITLE5=I don`t want no more
TTITLE6=Shame the devil
TTITLE7=What goes around comes around
TTITLE8=Quarter, nickel or a dime
TTITLE9=Idle time
TTITLE10=Spanish castle magic
TTITLE11=Time
TTITLE12=End
EXTD=
EXTT0=
EXTT1=
EXTT2=
EXTT3=
EXTT4=
EXTT5=
EXTT6=
EXTT7=
EXTT8=
EXTT9=
EXTT10=
EXTT11=
EXTT12=
PLAYORDER=
